<svg width="20" height="20" viewBox="0 0 20 20" fill="none" xmlns="http://www.w3.org/2000/svg">
<path fill-rule="evenodd" clip-rule="evenodd" d="M3.5349 6.45333C3.80284 6.18284 4.2372 6.18098 4.50514 6.45519L10.4856 12.5602C10.7536 12.8335 10.7527 13.275 10.4838 13.5464C10.3503 13.6812 10.1747 13.75 10.0001 13.75C9.82358 13.75 9.64801 13.6812 9.5145 13.5446L3.53399 7.43954C3.26606 7.16627 3.26697 6.72475 3.5349 6.45333ZM15.4943 6.45528C15.7622 6.18108 16.1966 6.18294 16.4645 6.45342C16.7334 6.72484 16.7343 7.16636 16.4672 7.43964L12.4958 11.4942C12.3623 11.6308 12.1858 11.6996 12.0102 11.6996C11.8356 11.6996 11.66 11.6308 11.5265 11.496C11.2576 11.2246 11.2567 10.7831 11.5237 10.5098L15.4943 6.45528Z" fill="#252322"/>
</svg>
