<svg id="Capa_1" enable-background="new 0 0 512 512" height="512" viewBox="0 0 512 512" width="512" xmlns="http://www.w3.org/2000/svg"><g><path d="m144.914 287.401v-210.803h-30v210.803c-16.39 6.105-28.097 21.909-28.097 40.4 0 23.764 19.333 43.097 43.097 43.097s43.097-19.333 43.097-43.097c0-18.49-11.708-34.294-28.097-40.4zm-15 53.497c-7.222 0-13.097-5.875-13.097-13.097s5.875-13.097 13.097-13.097 13.097 5.875 13.097 13.097-5.876 13.097-13.097 13.097z"/><path d="m320.37 263.876s-23.31 26.028-35.114 42.448c-25.754 35.827-25.754 51.38-25.754 56.491 0 33.562 27.305 60.868 60.868 60.868s60.868-27.305 60.868-60.868c0-5.111 0-20.664-25.754-56.491-11.804-16.42-35.114-42.448-35.114-42.448zm0 129.808c-17.021 0-30.868-13.847-30.868-30.868 0-1.829.962-12.292 19.965-38.774 3.762-5.243 7.551-10.159 10.902-14.352 3.352 4.193 7.141 9.109 10.902 14.352 19.003 26.483 19.965 36.946 19.965 38.774.001 17.02-13.846 30.868-30.866 30.868z"/><path d="m320.37 183.026c-43.964 0-85.113 17.217-115.566 47.292v-155.428c0-41.294-33.595-74.89-74.89-74.89s-74.89 33.595-74.89 74.89v182.289c-17.93 19.038-28.097 44.415-28.097 70.623 0 56.787 46.2 102.986 102.987 102.986 15.387 0 29.993-3.398 43.117-9.473 12.109 24.183 29.99 44.974 52.434 60.754 27.848 19.581 60.665 29.931 94.905 29.931 44.009 0 85.363-17.048 116.442-48.002 31.122-30.998 48.262-72.289 48.262-116.268-.001-90.818-73.886-164.704-164.704-164.704zm-263.443 144.775c0-20.155 8.499-39.624 23.316-53.414l4.781-4.45v-195.047c0-24.752 20.138-44.89 44.89-44.89s44.89 20.137 44.89 44.89v195.048l4.781 4.45c14.817 13.791 23.316 33.259 23.316 53.414 0 40.245-32.742 72.986-72.986 72.986-40.246 0-72.988-32.742-72.988-72.987zm358.714 114.941c-25.418 25.316-59.252 39.258-95.271 39.258-28.03 0-54.88-8.462-77.649-24.472-19.325-13.588-34.514-31.704-44.403-52.811 21.203-18.877 34.583-46.361 34.583-76.916 0-22.044-7.194-43.498-20.149-61.087 25.414-33.798 64.89-53.688 107.618-53.688 74.276 0 134.704 60.428 134.704 134.704-.001 35.942-14.005 69.685-39.433 95.012z"/></g></svg>