<?xml version="1.0"?>
<svg xmlns="http://www.w3.org/2000/svg" xmlns:xlink="http://www.w3.org/1999/xlink" xmlns:svgjs="http://svgjs.com/svgjs" version="1.1" width="512" height="512" x="0" y="0" viewBox="0 0 511.996 511.996" style="enable-background:new 0 0 512 512" xml:space="preserve" class=""><g><g xmlns="http://www.w3.org/2000/svg"><path d="m504.496 152.923h-107.186v-12.775c0-4.142-3.358-7.5-7.5-7.5s-7.5 3.358-7.5 7.5l-.004 356.85h-61.456v-107.19c0-4.142-3.358-7.5-7.5-7.5h-38.26c-4.142 0-7.5 3.358-7.5 7.5s3.358 7.5 7.5 7.5h30.76v23.23h-99.7v-23.23h36.25c4.142 0 7.5-3.358 7.5-7.5s-3.358-7.5-7.5-7.5h-43.75c-4.142 0-7.5 3.358-7.5 7.5v107.19h-61.455l-.005-405.54h61.465v30.734c0 4.142 3.358 7.5 7.5 7.5h114.69c4.142 0 7.5-3.358 7.5-7.5v-30.734h61.465v16c0 4.142 3.358 7.5 7.5 7.5s7.5-3.358 7.5-7.5v-16h11.61c4.142 0 7.5-3.358 7.5-7.5v-38.23c0-4.142-3.358-7.5-7.5-7.5h-88.075v-30.726c0-4.142-3.358-7.5-7.5-7.5h-114.69c-4.142 0-7.5 3.358-7.5 7.5v30.726h-88.075c-4.142 0-7.5 3.358-7.5 7.5v38.23c0 4.142 3.358 7.5 7.5 7.5h11.61v61.46h-33.5c-4.142 0-7.5 3.358-7.5 7.5s3.358 7.5 7.5 7.5h33.5v23.23h-99.69v-23.23h33.5c4.142 0 7.5-3.358 7.5-7.5s-3.358-7.5-7.5-7.5h-41c-4.142 0-7.5 3.358-7.5 7.5l.005 344.076c0 4.142 3.358 7.5 7.5 7.5h496.991c4.142 0 7.5-3.358 7.5-7.5v-344.071c0-4.142-3.358-7.5-7.5-7.5zm-183.651-99.695h80.575v23.23h-80.575zm-114.69-38.226h99.69v99.69h-99.69zm-91.465 481.991h-99.685v-290.84h99.685zm-4.11-420.535v-23.23h80.575v23.23zm95.57 420.54v-61.46h42.35v61.46zm57.35 0v-61.46h42.35v61.46zm233.496-.005h-99.686v-290.84h99.686zm0-305.84h-99.686v-23.23h99.686z" fill="#ffffff" data-original="#000000" style="" class=""/><path d="m275.115 38.232c-4.142 0-7.5 3.358-7.5 7.5v11.615h-23.23v-11.615c0-4.142-3.358-7.5-7.5-7.5s-7.5 3.358-7.5 7.5v38.23c0 4.142 3.358 7.5 7.5 7.5s7.5-3.358 7.5-7.5v-11.615h23.23v11.615c0 4.142 3.358 7.5 7.5 7.5s7.5-3.358 7.5-7.5v-38.23c0-4.142-3.358-7.5-7.5-7.5z" fill="#ffffff" data-original="#000000" style="" class=""/><path d="m206.155 160.423c0-4.142-3.358-7.5-7.5-7.5h-38.23c-4.142 0-7.5 3.358-7.5 7.5v76.46c0 4.142 3.358 7.5 7.5 7.5h38.23c4.142 0 7.5-3.358 7.5-7.5zm-15 68.96h-23.23v-23.23h23.23zm0-38.23h-23.23v-23.23h23.23z" fill="#ffffff" data-original="#000000" style="" class=""/><path d="m282.615 160.423c0-4.142-3.358-7.5-7.5-7.5h-38.23c-4.142 0-7.5 3.358-7.5 7.5v76.46c0 4.142 3.358 7.5 7.5 7.5h38.23c4.142 0 7.5-3.358 7.5-7.5zm-15 68.96h-23.23v-23.23h23.23zm0-38.23h-23.23v-23.23h23.23z" fill="#ffffff" data-original="#000000" style="" class=""/><path d="m359.075 160.423c0-4.142-3.358-7.5-7.5-7.5h-38.23c-4.142 0-7.5 3.358-7.5 7.5v76.46c0 4.142 3.358 7.5 7.5 7.5h38.23c4.142 0 7.5-3.358 7.5-7.5zm-15 68.96h-23.23v-23.23h23.23zm0-38.23h-23.23v-23.23h23.23z" fill="#ffffff" data-original="#000000" style="" class=""/><path d="m198.655 267.613h-38.23c-4.142 0-7.5 3.358-7.5 7.5v76.46c0 4.142 3.358 7.5 7.5 7.5h38.23c4.142 0 7.5-3.358 7.5-7.5v-76.46c0-4.142-3.358-7.5-7.5-7.5zm-7.5 76.46h-23.23v-23.23h23.23zm0-38.23h-23.23v-23.23h23.23z" fill="#ffffff" data-original="#000000" style="" class=""/><path d="m275.115 267.613h-38.23c-4.142 0-7.5 3.358-7.5 7.5v76.46c0 4.142 3.358 7.5 7.5 7.5h38.23c4.142 0 7.5-3.358 7.5-7.5v-76.46c0-4.142-3.358-7.5-7.5-7.5zm-7.5 76.46h-23.23v-23.23h23.23zm0-38.23h-23.23v-23.23h23.23z" fill="#ffffff" data-original="#000000" style="" class=""/><path d="m351.575 267.613h-38.23c-4.142 0-7.5 3.358-7.5 7.5v76.46c0 4.142 3.358 7.5 7.5 7.5h38.23c4.142 0 7.5-3.358 7.5-7.5v-76.46c0-4.142-3.358-7.5-7.5-7.5zm-7.5 76.46h-23.23v-23.23h23.23zm0-38.23h-23.23v-23.23h23.23z" fill="#ffffff" data-original="#000000" style="" class=""/><path d="m428.036 320.842h38.23c4.142 0 7.5-3.358 7.5-7.5v-76.46c0-4.142-3.358-7.5-7.5-7.5h-38.23c-4.142 0-7.5 3.358-7.5 7.5v76.46c0 4.143 3.358 7.5 7.5 7.5zm7.5-76.459h23.23v23.23h-23.23zm0 38.229h23.23v23.23h-23.23z" fill="#ffffff" data-original="#000000" style="" class=""/><path d="m428.036 435.533h38.23c4.142 0 7.5-3.358 7.5-7.5v-76.461c0-4.142-3.358-7.5-7.5-7.5h-38.23c-4.142 0-7.5 3.358-7.5 7.5v76.461c0 4.142 3.358 7.5 7.5 7.5zm7.5-76.461h23.23v23.23h-23.23zm0 38.23h23.23v23.23h-23.23z" fill="#ffffff" data-original="#000000" style="" class=""/><path d="m45.735 320.842h38.23c4.142 0 7.5-3.358 7.5-7.5v-76.46c0-4.142-3.358-7.5-7.5-7.5h-38.23c-4.142 0-7.5 3.358-7.5 7.5v76.46c0 4.143 3.358 7.5 7.5 7.5zm7.5-76.459h23.23v23.23h-23.23zm0 38.229h23.23v23.23h-23.23z" fill="#ffffff" data-original="#000000" style="" class=""/><path d="m45.735 435.533h38.23c4.142 0 7.5-3.358 7.5-7.5v-76.46c0-4.142-3.358-7.5-7.5-7.5h-38.23c-4.142 0-7.5 3.358-7.5 7.5v76.46c0 4.142 3.358 7.5 7.5 7.5zm7.5-76.46h23.23v23.23h-23.23zm0 38.23h23.23v23.23h-23.23z" fill="#ffffff" data-original="#000000" style="" class=""/></g></g></svg>
