<?xml version="1.0" encoding="utf-8"?>
<!-- Generator: Adobe Illustrator 22.0.0, SVG Export Plug-In . SVG Version: 6.00 Build 0)  -->
<svg version="1.1" id="Слой_1" xmlns="http://www.w3.org/2000/svg" xmlns:xlink="http://www.w3.org/1999/xlink" x="0px" y="0px"
	 viewBox="0 0 70 70" style="enable-background:new 0 0 70 70;" xml:space="preserve">
<style type="text/css">
	.st0{fill:#8499AB;}
</style>
<desc>Made with illustrio</desc>
<path class="st0" d="M54.1,59h-10c-0.8,0-1.4-0.6-1.4-1.4v-4.8c0-0.8,0.6-1.4,1.4-1.4h10c2.1,0,3.8-1.7,3.8-3.8V24.7
	c0-2.1-1.7-3.8-3.8-3.8h-10c-0.8,0-1.4-0.6-1.4-1.4v-4.8c0-0.8,0.6-1.4,1.4-1.4h10c6.3,0,11.4,5.1,11.4,11.4v22.9
	C65.5,53.9,60.4,59,54.1,59z M48.5,35.1l-20-20c-1.8-1.8-4.9-0.5-4.9,2v11.4H7.4c-1.6,0-2.9,1.3-2.9,2.9v11.4c0,1.6,1.3,2.9,2.9,2.9
	h16.2v11.4c0,2.6,3.1,3.8,4.9,2l20-20C49.6,38,49.6,36.2,48.5,35.1z"/>
</svg>
