<svg id="Capa_1" enable-background="new 0 0 512 512" height="512" viewBox="0 0 512 512" width="512" xmlns="http://www.w3.org/2000/svg"><g><path d="m470.708 464.081-50-252c-1.393-7.022-7.554-12.081-14.713-12.081h-54.995v-25c0-30.643-18.481-57.037-44.875-68.662 9.288-11.243 14.875-25.65 14.875-41.338 0-35.841-29.159-65-65-65s-65 29.159-65 65c0 15.688 5.587 30.095 14.875 41.338-26.394 11.625-44.875 38.019-44.875 68.662v25h-54.995c-7.159 0-13.32 5.059-14.713 12.081l-50 252c-1.841 9.275 5.257 17.919 14.713 17.919h104.995v15c0 8.284 6.716 15 15 15h160c8.284 0 15-6.716 15-15v-15h104.995c9.456 0 16.554-8.644 14.713-17.919zm-214.708-434.081c19.299 0 35 15.701 35 35s-15.701 35-35 35-35-15.701-35-35 15.701-35 35-35zm-65 145c0-24.813 20.187-45 45-45h40c24.813 0 45 20.187 45 45v25h-130zm130 307h-130v-25c0-24.813 20.187-45 45-45h40c24.813 0 45 20.187 45 45zm-65-100c-19.299 0-35-15.701-35-35s15.701-35 35-35 35 15.701 35 35-15.701 35-35 35zm94.815 70c-1.886-28.492-19.744-52.675-44.689-63.662 9.287-11.243 14.874-25.65 14.874-41.338 0-35.841-29.159-65-65-65s-65 29.159-65 65c0 15.688 5.587 30.095 14.875 41.338-24.945 10.988-42.803 35.171-44.689 63.662h-86.913l44.048-222h275.357l44.048 222z"/></g></svg>