<svg height="512" viewBox="0 0 60 60" width="512" xmlns="http://www.w3.org/2000/svg"><g id="Page-1" fill="none" fill-rule="evenodd"><g id="047---Any-Solvent-Except-Tetrachlorethylene" fill="rgb(0,0,0)" fill-rule="nonzero"><path id="Shape" d="m30 0c-16.5685425 0-30 13.4314575-30 30s13.4314575 30 30 30 30-13.4314575 30-30c-.018737-16.5607751-13.4392249-29.98126296-30-30zm0 58c-15.463973 0-28-12.536027-28-28s12.536027-28 28-28 28 12.536027 28 28c-.0176345 15.4566626-12.5433374 27.9823655-28 28z"/><path id="Shape" d="m30 4c-14.3594035 0-26 11.6405965-26 26s11.6405965 26 26 26 26-11.6405965 26-26c-.0159821-14.3527783-11.6472217-25.98401786-26-26zm0 50c-13.254834 0-24-10.745166-24-24s10.745166-24 24-24 24 10.745166 24 24c-.0154295 13.2484376-10.7515624 23.9845705-24 24z"/><path id="Shape" d="m31 13h-9c-2.209139 0-4 1.790861-4 4v26c0 2.209139 1.790861 4 4 4s4-1.790861 4-4v-8h5c6.0751322 0 11-4.9248678 11-11s-4.9248678-11-11-11zm0 20h-6c-.5522847 0-1 .4477153-1 1v9c0 1.1045695-.8954305 2-2 2s-2-.8954305-2-2v-26c0-1.1045695.8954305-2 2-2h9c4.9705627 0 9 4.0294373 9 9s-4.0294373 9-9 9z"/><path id="Shape" d="m31 19h-6c-.5522847 0-1 .4477153-1 1v8c0 .5522847.4477153 1 1 1h6c2.7614237 0 5-2.2385763 5-5s-2.2385763-5-5-5zm0 8h-5v-6h5c1.6568542 0 3 1.3431458 3 3s-1.3431458 3-3 3z"/></g></g></svg>