<?xml version="1.0"?>
<svg xmlns="http://www.w3.org/2000/svg" xmlns:xlink="http://www.w3.org/1999/xlink" xmlns:svgjs="http://svgjs.com/svgjs" version="1.1" width="512" height="512" x="0" y="0" viewBox="0 0 512 512" style="enable-background:new 0 0 512 512" xml:space="preserve" class=""><g><g xmlns="http://www.w3.org/2000/svg"><path d="m498.765 313.257-115.765-21.706v-21.611l7.118 6.233c9.589 8.401 24.882 1.668 24.882-11.284v-79.645c0-4.291-1.838-8.377-5.048-11.224l-192-170.244c-5.68-5.035-14.225-5.035-19.904 0l-192 170.244c-3.21 2.847-5.048 6.933-5.048 11.224v79.645c0 12.861 15.202 19.764 24.882 11.284l7.118-6.234v227.061c0 8.284 6.716 15 15 15h448c8.284 0 15-6.716 15-15v-169c0-7.218-5.141-13.413-12.235-14.743zm-467.765-81.443v-39.823l177-156.943 177 156.943v39.823l-167.118-146.347c-5.655-4.954-14.107-4.955-19.764 0zm150.103 200.686-54.103 36.35v-72.701zm-19.88-49.5h93.555l-46.778 31.428zm0 99 46.777-31.429 46.777 31.429zm127.777-13.15-54.103-36.35 54.103-36.351zm64 13.15h-34v-114c0-8.284-6.716-15-15-15h-192c-8.284 0-15 6.716-15 15v114h-34v-163h290zm0-193h-290v-45.332l145-126.979 145 126.979zm128 193h-98v-159.926l98 18.375z" fill="#ffffff" data-original="#000000" style="" class=""/><path d="m193 191.468v50.532c0 8.284 6.716 15 15 15s15-6.716 15-15v-50.532c0-8.284-6.716-15-15-15s-15 6.716-15 15z" fill="#ffffff" data-original="#000000" style="" class=""/></g></g></svg>
