<?xml version="1.0"?>
<svg xmlns="http://www.w3.org/2000/svg" xmlns:xlink="http://www.w3.org/1999/xlink" xmlns:svgjs="http://svgjs.com/svgjs" version="1.1" width="512" height="512" x="0" y="0" viewBox="0 0 605.764 605.764" style="enable-background:new 0 0 512 512" xml:space="preserve" class=""><g><g xmlns="http://www.w3.org/2000/svg"><g id="Page-1_85_"><g id="_x30_86---Travel-And-Tourism" transform="translate(-1 -1)"><path id="Shape_309_" d="m241.317 505.429 14.132 14.132c.034 9.197 3.71 18.006 10.225 24.498 6.489 6.541 15.315 10.231 24.529 10.255l46.554 46.564c7.875 7.834 20.6 7.834 28.475 0l10.023-10.023c5.144-5.196 7.122-12.743 5.188-19.794l-15.928-55.588c4.976-4.441 10.033-9.135 15.242-14.323l49.461-49.461 106.533 106.573c7.876 7.841 20.609 7.841 28.485 0l10.185-10.145c5.027-5.06 7.02-12.391 5.249-19.3l-11.739-45.282 31.877-31.867c7.841-7.876 7.841-20.609 0-28.485l-21.349-21.298c-7.97-7.611-20.516-7.611-28.485 0l-2.564 2.574-14.606-56.335 46.665-46.685c21.477-21.107 31.16-51.449 25.881-81.096-1.629-8.109-8.02-14.417-16.15-15.939-29.574-5.207-59.817 4.471-80.874 25.881l-3.392 3.392c-10.552-134.843-125.54-237.389-260.706-232.499s-242.443 115.477-243.224 250.73 105.212 247.071 240.313 253.521zm18.977-9.549-37.146-37.106 9.983-10.094 47.119 13.496c-8.124 10.299-14.842 21.633-19.976 33.704zm100.729 80.753-9.983 9.973-37.227-37.237c12.078-5.107 23.42-11.805 33.724-19.916zm4.512-89.716c-31.292 31.17-59.01 48.108-75.453 47.069l60.948-60.948c3.825-3.961 3.771-10.256-.123-14.15s-10.189-3.948-14.15-.123l-60.958 60.918c-1.009-16.474 15.898-44.192 47.048-75.433l183.237-183.137c12.214-6.263 27.074-3.928 36.779 5.777 9.706 9.706 12.04 24.565 5.777 36.779zm-142.387-213.227h-15.141c-19.405-.255-35.074-15.924-35.329-35.329 0-19.512 15.817-35.329 35.329-35.329h75.705c16.724 0 30.282 13.558 30.282 30.282v5.36l-33.068-8.57c-6.907-1.761-14.232.236-19.29 5.259l-10.094 10.155c-7.841 7.876-7.841 20.609 0 28.485l44.162 44.172-34.32 68.397c-3.304 5.803-10.032 8.74-16.533 7.217s-11.226-7.142-11.609-13.808v-96.196c0-5.576-4.519-10.095-10.094-10.095zm159.486-17.16-33.785-8.762 23.449-23.539 21.329 21.258zm-116.889 3.311 10.094-10.145 169.227 43.879-72.788 72.758zm298.431 156.286 21.349 21.268-23.469 23.469-8.782-33.744zm-4.038 117.707-10.094 10.155-106.563-106.543 72.758-72.798zm25.346-309.787c3.544 19.876-1.637 40.316-14.223 56.103-3.499-21.453-20.362-38.243-41.83-41.648 12.472-10.054 28.031-15.495 44.051-15.404 4.013.002 8.019.319 11.982.949zm-107.966-31.11h-24.831c-15.268-.017-27.641-12.39-27.658-27.658-.102-17.725-9.401-34.125-24.559-43.314l-11.174-6.602c-9.09-5.52-14.667-15.358-14.737-25.992v-33.844c50.557 31.03 87.378 80.172 102.959 137.41zm-264.464-168.015v49.461c-.299 26.308-21.538 47.569-47.846 47.896-17.725.102-34.125 9.401-43.314 24.559l-6.602 11.174c-5.52 9.09-15.358 14.667-25.992 14.737h-53.498c28.8-77.143 96.191-133.348 177.252-147.827zm-183.712 168.015h59.959c17.725-.102 34.125-9.401 43.314-24.559l6.602-11.174c5.52-9.09 15.358-14.667 25.992-14.737 37.367-.495 67.539-30.667 68.034-68.034v-52.166c6.662-.575 13.385-.929 20.188-.929 34.964-.04 69.481 7.868 100.941 23.125v44.908c.102 17.725 9.401 34.125 24.559 43.314l11.174 6.602c9.09 5.52 14.667 15.358 14.737 25.992.033 26.411 21.435 47.812 47.846 47.846h29.323c2.337 13.183 3.536 26.543 3.583 39.932l-23.923 23.913-56.335-14.606 2.574-2.574c7.841-7.876 7.841-20.609 0-28.485l-21.339-21.329c-7.974-7.601-20.511-7.601-28.485 0l-23.903 23.913v-.575c-.033-27.86-22.61-50.437-50.47-50.47h-75.705c-30.645.039-55.478 24.872-55.517 55.517.402 30.493 25.024 55.115 55.517 55.517h5.047v86.102c0 16.154 11.323 30.096 27.133 33.411 2.842.669 5.751 1.008 8.671 1.009 12.947.124 24.82-7.182 30.545-18.795l31.292-62.391 47.341 47.331-49.461 49.461c-5.178 5.198-9.892 10.256-14.323 15.222l-55.76-15.979c-7.006-1.836-14.46.159-19.613 5.249l-10.023 10.023c-7.841 7.876-7.841 20.609 0 28.485l10.033 10.034c-65.468-9.811-123.627-47.122-159.836-102.541s-47.022-123.666-29.712-187.562z" fill="#ffffff" data-original="#000000" style="" class=""/></g></g></g></g></svg>
